<svg width="24" height="24" viewBox="0 0 24 24" fill="none" xmlns="http://www.w3.org/2000/svg">
<path d="M2.66667 3.3335C1.95942 3.3335 1.28115 3.61445 0.781049 4.11454C0.280952 4.61464 0 5.29292 0 6.00016L0 18.0002C0 18.7074 0.280952 19.3857 0.781049 19.8858C1.28115 20.3859 1.95942 20.6668 2.66667 20.6668H6.66667V3.3335H2.66667ZM21.3333 3.3335H17.3333V20.6668H21.3333C22.0406 20.6668 22.7189 20.3859 23.219 19.8858C23.719 19.3857 24 18.7074 24 18.0002V6.00016C24 5.29292 23.719 4.61464 23.219 4.11454C22.7189 3.61445 22.0406 3.3335 21.3333 3.3335Z" fill="#D52B1E"/>
<path d="M6.66663 3.3335H17.3333V20.6668H6.66663V3.3335Z" fill="#EEEEEE"/>
<path d="M12.41 14.7422C13.2086 14.8349 13.9246 14.9182 14.7226 15.0095L14.5193 14.3415C14.5043 14.2841 14.5064 14.2235 14.5252 14.1671C14.544 14.1108 14.5788 14.0612 14.6253 14.0242L16.9446 12.1349L16.4646 11.9089C16.2533 11.8335 16.3113 11.7142 16.388 11.4275L16.742 10.1369L15.3946 10.4215C15.2633 10.4415 15.176 10.3582 15.156 10.2782L14.982 9.67087L13.9166 10.8669C13.7653 11.0589 13.4586 11.0589 13.554 10.6162L14.0093 8.19353L13.398 8.5102C13.2266 8.6062 13.0553 8.6222 12.96 8.45087L12.1166 6.87354L11.2733 8.45087C11.1773 8.6222 11.006 8.6062 10.8346 8.5102L10.224 8.19353L10.6793 10.6162C10.7753 11.0589 10.468 11.0589 10.3166 10.8669L9.2513 9.67154L9.07796 10.2789C9.05796 10.3589 8.96996 10.4422 8.83863 10.4222L7.4913 10.1375L7.8453 11.4282C7.92063 11.7149 7.9793 11.8342 7.76796 11.9095L7.28796 12.1355L9.6073 14.0249C9.6993 14.0962 9.74596 14.2249 9.71263 14.3422L9.5093 15.0102L11.8226 14.7429C11.8933 14.7429 11.94 14.7822 11.9393 14.8635L11.7966 17.3329H12.434L12.292 14.8635C12.2933 14.7815 12.3393 14.7422 12.41 14.7422Z" fill="#D52B1E"/>
</svg>
