<svg width="24" height="24" viewBox="0 0 24 24" fill="none" xmlns="http://www.w3.org/2000/svg">
<path d="M23.63 4.66683C23.168 3.87283 22.318 3.3335 21.3333 3.3335H12V4.66683H23.63ZM0 16.6668H24V18.0002H0V16.6668ZM12 11.3335H24V12.6668H12V11.3335ZM12 8.66683H24V10.0002H12V8.66683ZM0 14.0002H24V15.3335H0V14.0002ZM2.66667 20.6668H21.3333C22.318 20.6668 23.168 20.1275 23.63 19.3335H0.37C0.832 20.1275 1.682 20.6668 2.66667 20.6668ZM12 6.00016H24V7.3335H12V6.00016Z" fill="#D52B1E"/>
<path d="M0.0453333 18.4525C0.0564444 18.5147 0.0695556 18.5763 0.0846667 18.6372C0.102444 18.7038 0.122889 18.7696 0.146 18.8345C0.205333 19.0072 0.277333 19.1738 0.368 19.3298L0.37 19.3332H23.63L23.6313 19.3305C23.7217 19.1738 23.7958 19.0083 23.8527 18.8365C23.8959 18.7112 23.9298 18.5828 23.954 18.4525C23.9813 18.3058 24 18.1552 24 17.9998H0C0 18.1552 0.0186667 18.3052 0.0453333 18.4525ZM0 15.3332H24V16.6665H0V15.3332ZM0 12.6665V13.9998H24V12.6665H12H0ZM12 9.99984H24V11.3332H12V9.99984ZM12 7.33317H24V8.6665H12V7.33317ZM0.0853333 5.3625C0.102 5.2945 0.125333 5.22984 0.146667 5.1645C0.123664 5.22968 0.103204 5.29573 0.0853333 5.3625ZM12 5.99984H24C24 5.8445 23.9813 5.69384 23.954 5.5465C23.9307 5.4159 23.8966 5.28746 23.852 5.1625C23.7951 4.99004 23.7207 4.82385 23.63 4.6665H12V5.99984Z" fill="#EEEEEE"/>
<path d="M12 3.3335H2.66667C1.95942 3.3335 1.28115 3.61445 0.781049 4.11454C0.280952 4.61464 0 5.29292 0 6.00016L0 12.6668H12V3.3335Z" fill="#3C3B6E"/>
<path d="M1.33398 5.1505L1.74598 5.44984L1.58865 5.93317L1.99998 5.6345L2.41198 5.93317L2.25465 5.44984L2.66665 5.1505H2.15732L1.99998 4.6665L1.84332 5.1505H1.33398ZM2.66732 6.48384L3.07932 6.78317L2.92198 7.2665L3.33332 6.96784L3.74532 7.2665L3.58798 6.78317L3.99998 6.48384H3.49065L3.33332 5.99984L3.17665 6.48384H2.66732ZM5.33398 6.48384L5.74599 6.78317L5.58865 7.2665L5.99998 6.96784L6.41198 7.2665L6.25465 6.78317L6.66665 6.48384H6.15732L5.99998 5.99984L5.84332 6.48384H5.33398ZM8.00065 6.48384L8.41265 6.78317L8.25532 7.2665L8.66665 6.96784L9.07865 7.2665L8.92132 6.78317L9.33332 6.48384H8.82399L8.66665 5.99984L8.50998 6.48384H8.00065ZM2.66732 9.1505L3.07932 9.44984L2.92198 9.93317L3.33332 9.6345L3.74532 9.93317L3.58798 9.44984L3.99998 9.1505H3.49065L3.33332 8.6665L3.17665 9.1505H2.66732ZM5.33398 9.1505L5.74599 9.44984L5.58865 9.93317L5.99998 9.6345L6.41198 9.93317L6.25465 9.44984L6.66665 9.1505H6.15732L5.99998 8.6665L5.84332 9.1505H5.33398ZM8.00065 9.1505L8.41265 9.44984L8.25532 9.93317L8.66665 9.6345L9.07865 9.93317L8.92132 9.44984L9.33332 9.1505H8.82399L8.66665 8.6665L8.50998 9.1505H8.00065ZM4.00065 5.1505L4.41265 5.44984L4.25532 5.93317L4.66665 5.6345L5.07865 5.93317L4.92132 5.44984L5.33332 5.1505H4.82398L4.66665 4.6665L4.50998 5.1505H4.00065ZM6.66732 5.1505L7.07932 5.44984L6.92198 5.93317L7.33332 5.6345L7.74532 5.93317L7.58799 5.44984L7.99998 5.1505H7.49065L7.33332 4.6665L7.17665 5.1505H6.66732ZM9.33398 5.1505L9.74599 5.44984L9.58865 5.93317L9.99998 5.6345L10.412 5.93317L10.2547 5.44984L10.6667 5.1505H10.1573L9.99998 4.6665L9.84332 5.1505H9.33398ZM1.33398 7.81717L1.74598 8.1165L1.58865 8.59984L1.99998 8.30117L2.41198 8.59984L2.25465 8.1165L2.66665 7.81717H2.15732L1.99998 7.33317L1.84332 7.81717H1.33398ZM4.25532 8.59984L4.66665 8.30117L5.07865 8.59984L4.92132 8.1165L5.33332 7.81717H4.82398L4.66665 7.33317L4.50998 7.81717H4.00065L4.41265 8.1165L4.25532 8.59984ZM6.66732 7.81717L7.07932 8.1165L6.92198 8.59984L7.33332 8.30117L7.74532 8.59984L7.58799 8.1165L7.99998 7.81717H7.49065L7.33332 7.33317L7.17665 7.81717H6.66732ZM9.33398 7.81717L9.74599 8.1165L9.58865 8.59984L9.99998 8.30117L10.412 8.59984L10.2547 8.1165L10.6667 7.81717H10.1573L9.99998 7.33317L9.84332 7.81717H9.33398ZM1.33398 10.4838L1.74598 10.7832L1.58865 11.2665L1.99998 10.9678L2.41198 11.2665L2.25465 10.7832L2.66665 10.4838H2.15732L1.99998 9.99984L1.84332 10.4838H1.33398ZM4.25532 11.2665L4.66665 10.9678L5.07865 11.2665L4.92132 10.7832L5.33332 10.4838H4.82398L4.66665 9.99984L4.50998 10.4838H4.00065L4.41265 10.7832L4.25532 11.2665ZM6.66732 10.4838L7.07932 10.7832L6.92198 11.2665L7.33332 10.9678L7.74532 11.2665L7.58799 10.7832L7.99998 10.4838H7.49065L7.33332 9.99984L7.17665 10.4838H6.66732ZM9.33398 10.4838L9.74599 10.7832L9.58865 11.2665L9.99998 10.9678L10.412 11.2665L10.2547 10.7832L10.6667 10.4838H10.1573L9.99998 9.99984L9.84332 10.4838H9.33398Z" fill="white"/>
</svg>
